<svg viewBox="0 0 1480 179" fill="none" xmlns="http://www.w3.org/2000/svg">
<path d="M1.81335 49.8478C1.81335 20.6413 30.8655 0 56.6383 0C75.1576 0 92.6738 6.48178 106.949 22.2618L76.3922 42.9031C71.3766 38.0418 63.12 34.3379 56.5997 34.3379C46.3369 34.3379 39.315 40.1252 39.315 49.6549C39.315 57.5256 45.5653 64.7019 65.3578 65.8979C97.1493 67.7499 123.424 87.6967 123.424 121.07C123.424 154.675 93.1368 178.789 60.3421 178.789C39.0449 178.789 17.7863 171.612 0 153.517L32.0616 131.719C40.5882 141.673 49.3463 144.219 60.3421 144.219C73.1127 144.219 83.1055 134.728 83.1055 123.578C83.1055 109.688 73.0742 101.085 55.0564 99.2327C22.8405 95.7603 1.81335 76.9709 1.81335 49.8478Z" fill="white"/>
<path d="M350.786 3.05131H391.104L296.231 178.753L255.411 107.57L217.099 178.753L117.481 3.05131H162.043L218.604 104.367L236.12 73.0775L196.574 3.08993H241.136L297.697 104.406L350.786 3.05131Z" fill="white"/>
<path d="M382.079 89.2782C382.079 39.8933 425.136 0.0381851 478.456 0.0381851C532.047 0.0381851 575.065 39.8933 575.065 89.2782C575.065 138.663 532.008 178.75 478.688 178.75C425.136 178.75 382.079 138.663 382.079 89.2782ZM421.895 89.2782C421.895 120.105 446.665 144.219 478.726 144.219C510.286 144.219 535.288 120.105 535.288 89.2782C535.288 58.9142 510.016 34.3375 478.456 34.3375C446.665 34.3375 421.895 58.9142 421.895 89.2782Z" fill="white"/>
<path d="M641.696 145.843V175.744H602.883V3.05131H667.701C711.491 3.05131 745.057 33.4153 745.057 70.9555C745.057 102.014 729.046 124.739 703.003 135.85L743.321 175.705H691.737L661.18 145.804H641.696V145.843ZM657.708 113.396C688.496 113.396 705.279 99.5061 705.279 73.772C705.279 52.6677 691.776 35.5373 665.231 35.5373H641.696V113.434H657.708V113.396Z" fill="white"/>
<path d="M847.483 3.05131C901.305 3.05131 945.096 40.1286 945.096 89.2819C945.096 138.898 901.305 175.744 847.715 175.744H771.863V3.05131H847.483ZM847.715 143.297C880.008 143.297 905.279 120.34 905.279 89.2819C905.279 57.992 880.008 35.4987 847.445 35.4987H810.638V143.297H847.715Z" fill="white"/>
<path d="M972.918 175.744V3.05131H1072.03V35.4987H1011.69V67.7146H1081.8V99.9305H1011.69V175.744H972.918Z" fill="white"/>
<path d="M1145.88 175.744H1107.07V3.05131H1145.88V175.744Z" fill="white"/>
<path d="M1172.92 49.8478C1172.92 20.6413 1201.97 -3.05176e-05 1227.75 -3.05176e-05C1246.27 -3.05176e-05 1263.78 6.48175 1278.06 22.2618L1247.5 42.9031C1242.48 38.0417 1234.23 34.3379 1227.71 34.3379C1217.45 34.3379 1210.42 40.1252 1210.42 49.6549C1210.42 57.5256 1216.67 64.7019 1236.47 65.8979C1268.26 67.7498 1294.53 87.6967 1294.53 121.07C1294.53 154.675 1264.24 178.789 1231.45 178.789C1210.15 178.789 1188.89 171.612 1171.11 153.517L1203.17 131.719C1211.7 141.673 1220.45 144.219 1231.45 144.219C1244.22 144.219 1254.21 134.728 1254.21 123.578C1254.21 109.688 1244.18 101.085 1226.16 99.2327C1193.95 95.7603 1172.92 76.9709 1172.92 49.8478Z" fill="white"/>
<path d="M1355.57 3.05131V67.7146H1441.19V3.05131H1480V175.744H1441.19V99.9305H1355.57V175.744H1316.76V3.05131H1355.57Z" fill="white"/>
</svg>